<?xml version="1.0" encoding="UTF-8"?>
<svg id="Variation_05" xmlns="http://www.w3.org/2000/svg" viewBox="0 0 239.21 118.07">
  <defs>
    <style>
      .cls-1 {
        fill: #fff;
      }

      .cls-2 {
        fill: #ae1f25;
      }
    </style>
  </defs>
  <g id="Nicholas">
    <path class="cls-1" d="M.72,102.92H2.93v2.67c.5-.93,1.27-1.66,2.3-2.18s2.2-.79,3.51-.79c1.96,0,3.5,.51,4.64,1.52,1.13,1.01,1.7,2.38,1.7,4.12v9.51h-2.21v-9.82c0-1.31-.4-2.34-1.2-3.09-.8-.75-1.9-1.12-3.32-1.12-1.64,0-2.95,.51-3.94,1.53-.99,1.02-1.48,2.37-1.48,4.04v8.45H.72v-14.85Z"/>
    <path class="cls-1" d="M35.96,100.5c-.32-.3-.48-.7-.48-1.18s.17-.88,.5-1.2c.33-.31,.75-.47,1.26-.47s.92,.16,1.26,.47c.33,.31,.5,.71,.5,1.2s-.16,.88-.48,1.18c-.32,.3-.75,.46-1.27,.46s-.95-.15-1.27-.46Zm.15,2.42h2.21v14.85h-2.21v-14.85Z"/>
    <path class="cls-1" d="M62.94,117.12c-1.24-.64-2.2-1.54-2.88-2.7-.68-1.16-1.02-2.52-1.02-4.08s.34-2.91,1.02-4.08c.68-1.16,1.64-2.06,2.88-2.7,1.24-.64,2.68-.96,4.32-.96,1.96,0,3.61,.43,4.94,1.3,1.33,.87,2.19,2.06,2.58,3.58h-1.94c-.32-1.15-.98-2.07-1.98-2.74s-2.19-1.02-3.56-1.02c-1.84,0-3.3,.6-4.39,1.8-1.09,1.2-1.64,2.8-1.64,4.8s.55,3.6,1.64,4.79c1.09,1.19,2.56,1.79,4.39,1.79,1.37,0,2.56-.34,3.58-1.01,1.01-.68,1.67-1.59,1.97-2.74h1.94c-.34,1.51-1.19,2.71-2.54,3.59-1.35,.88-3,1.32-4.94,1.32-1.66,0-3.11-.32-4.35-.95Z"/>
    <path class="cls-1" d="M94.77,97.07h2.21v8.82c.55-1.03,1.35-1.83,2.41-2.41,1.06-.58,2.27-.86,3.62-.86,1.92,0,3.41,.47,4.48,1.41,1.07,.94,1.61,2.26,1.61,3.95v9.79h-2.21v-10.06c0-1.25-.37-2.23-1.12-2.92-.75-.7-1.79-1.05-3.12-1.05-1.7,0-3.07,.55-4.11,1.64-1.04,1.09-1.56,2.53-1.56,4.3v8.09h-2.21v-20.69Z"/>
    <path class="cls-1" d="M132.75,117.1c-1.26-.65-2.24-1.55-2.92-2.71-.69-1.16-1.03-2.51-1.03-4.04s.34-2.88,1.03-4.04c.69-1.16,1.66-2.07,2.92-2.71s2.72-.97,4.38-.97,3.12,.32,4.38,.97,2.24,1.55,2.94,2.71c.7,1.16,1.04,2.51,1.04,4.04s-.35,2.88-1.04,4.04c-.7,1.16-1.68,2.07-2.94,2.71-1.26,.65-2.72,.97-4.38,.97s-3.12-.32-4.38-.97Zm8.86-1.94c1.09-1.17,1.64-2.78,1.64-4.82s-.54-3.65-1.64-4.83-2.59-1.77-4.48-1.77-3.39,.59-4.47,1.77c-1.08,1.18-1.62,2.79-1.62,4.83s.54,3.65,1.62,4.82c1.08,1.17,2.57,1.76,4.47,1.76s3.39-.58,4.48-1.76Z"/>
    <path class="cls-1" d="M166.34,97.07h2.21v20.69h-2.21v-20.69Z"/>
    <path class="cls-1" d="M191.14,116.89c-1-.79-1.5-1.91-1.5-3.36,0-1.55,.61-2.74,1.83-3.56,1.22-.82,3-1.23,5.35-1.23h4.58v-1.12c0-1.25-.39-2.21-1.18-2.88-.79-.67-1.93-1-3.42-1-1.39,0-2.51,.31-3.35,.94-.84,.63-1.34,1.5-1.5,2.64h-1.82c.2-1.52,.89-2.68,2.06-3.49,1.17-.81,2.73-1.21,4.67-1.21,2.16,0,3.82,.46,4.98,1.38,1.16,.92,1.74,2.24,1.74,3.95v4.94c0,1.72,.15,3.34,.46,4.88h-2.09c-.22-.93-.36-1.86-.42-2.79-1.25,2.06-3.26,3.09-6.03,3.09-1.9,0-3.35-.39-4.35-1.18Zm7.62-.61c.81-.46,1.45-1.1,1.92-1.89,.47-.8,.71-1.66,.71-2.59v-1.94h-4c-1.9,0-3.3,.29-4.21,.88s-1.36,1.5-1.36,2.76c0,1.15,.36,2.02,1.09,2.61,.73,.59,1.79,.88,3.18,.88,.97,0,1.86-.23,2.67-.7Z"/>
    <path class="cls-1" d="M226.12,116.83c-1.29-.83-2.05-1.96-2.27-3.39h1.97c.14,1.07,.69,1.92,1.65,2.54,.96,.63,2.21,.94,3.74,.94s2.66-.29,3.54-.88c.89-.58,1.33-1.36,1.33-2.33,0-.81-.37-1.43-1.11-1.88-.74-.44-2.05-.82-3.92-1.12-1.68-.26-3-.57-3.97-.91s-1.67-.77-2.11-1.27c-.43-.5-.65-1.13-.65-1.88,0-1.23,.59-2.21,1.79-2.94,1.19-.73,2.82-1.09,4.88-1.09s3.7,.4,4.97,1.21c1.27,.81,2.01,1.93,2.21,3.36h-1.97c-.16-1.05-.71-1.89-1.64-2.51-.93-.63-2.09-.94-3.48-.94s-2.45,.25-3.29,.74c-.84,.5-1.26,1.15-1.26,1.96,0,.48,.14,.88,.42,1.18,.28,.3,.8,.57,1.54,.8s1.85,.47,3.3,.71c2.3,.38,3.96,.92,4.97,1.61,1.01,.69,1.51,1.64,1.51,2.85,0,1.37-.64,2.46-1.92,3.27-1.28,.81-3.03,1.21-5.23,1.21-2.06,0-3.74-.41-5.03-1.24Z"/>
  </g>
  <g id="Salemi">
    <path class="cls-2" d="M226.08,23.04c0-3.3,2.79-5.73,6.57-5.73s6.57,2.43,6.57,5.73-2.79,5.82-6.57,5.82-6.57-2.52-6.57-5.82Zm1.89,12.59h9.45v42.88h-9.45V35.62Z"/>
    <path class="cls-2" d="M152.98,19.85c0-13.4,8.11-19.85,18.53-19.85,7.11,0,12.66,3.14,15.63,9.02,2.98-5.87,8.52-9.02,15.63-9.02,10.42,0,18.53,6.45,18.53,19.85V55.17h-8.44V19.85c0-8.27-4.63-12.08-10.75-12.08s-10.75,3.97-10.75,12.08V55.17h-8.44V19.85c0-8.11-4.55-12.08-10.75-12.08s-10.75,3.81-10.75,12.08V55.17h-8.44V19.85Z"/>
    <path class="cls-2" d="M104.83,42.72c0-12.41,9.1-21.51,22-21.51s21.84,9.1,21.84,21.51v2.9h-35.57c1.16,7.28,6.62,11.33,13.73,11.33,5.29,0,9.02-1.65,11.42-5.21h8.69c-3.14,7.61-10.59,12.49-20.1,12.49-12.9,0-22-9.1-22-21.51Zm35.57-4.14c-1.57-6.53-6.95-10.09-13.57-10.09s-11.91,3.64-13.48,10.09h27.05Z"/>
    <path class="cls-2" d="M91.05,24.41h8.44v46.32h30.36v7.78h-38.79V24.41Z"/>
    <path class="cls-2" d="M42.03,62.96c0-12.82,9.1-21.84,22.09-21.84s21.75,8.77,21.75,21.84v20.1h-7.2v-8.93c-2.73,6.62-8.77,10.01-15.88,10.01-10.67,0-20.76-7.69-20.76-21.18Zm36.06-.33c0-8.27-5.62-14.23-14.06-14.23s-14.06,5.96-14.06,14.23,5.62,14.23,14.06,14.23,14.06-5.96,14.06-14.23Z"/>
    <path class="cls-2" d="M0,51.02H8.35c.17,5.29,4.22,8.77,11.58,8.77s11.75-3.47,11.75-8.77c0-5.71-5.79-6.62-12.33-7.78-8.44-1.49-18.11-3.14-18.11-15.3,0-9.84,7.44-16.63,18.78-16.63s18.53,6.45,18.86,16.13h-8.02c-.25-4.8-3.97-8.35-10.67-8.35s-10.84,3.64-10.84,8.6c0,5.71,5.87,6.62,12.41,7.78,8.52,1.49,18.2,3.14,18.2,15.3,0,10.34-7.94,16.79-20.02,16.79S.25,61.28,0,51.02Z"/>
  </g>
</svg>